<mxfile host="app.diagrams.net" modified="2024-01-19T17:57:36.313Z" agent="Mozilla/5.0 (Windows NT 10.0; Win64; x64) AppleWebKit/537.36 (KHTML, like Gecko) Chrome/120.0.0.0 Safari/537.36" etag="oBustZrMU5hJCYyleg_P" version="22.1.17" type="google">
  <diagram id="C5RBs43oDa-KdzZeNtuy" name="Page-1">
    <mxGraphModel grid="1" page="1" gridSize="10" guides="1" tooltips="1" connect="1" arrows="1" fold="1" pageScale="1" pageWidth="827" pageHeight="1169" math="0" shadow="0">
      <root>
        <mxCell id="WIyWlLk6GJQsqaUBKTNV-0" />
        <mxCell id="WIyWlLk6GJQsqaUBKTNV-1" parent="WIyWlLk6GJQsqaUBKTNV-0" />
        <mxCell id="05jQyI-5W1TUXFGKNwJl-10" style="edgeStyle=orthogonalEdgeStyle;rounded=0;orthogonalLoop=1;jettySize=auto;html=1;exitX=0;exitY=0.5;exitDx=0;exitDy=0;entryX=1;entryY=0.5;entryDx=0;entryDy=0;" edge="1" parent="WIyWlLk6GJQsqaUBKTNV-1" source="WIyWlLk6GJQsqaUBKTNV-3" target="05jQyI-5W1TUXFGKNwJl-0">
          <mxGeometry relative="1" as="geometry">
            <mxPoint x="150" y="480" as="targetPoint" />
          </mxGeometry>
        </mxCell>
        <mxCell id="05jQyI-5W1TUXFGKNwJl-11" style="edgeStyle=orthogonalEdgeStyle;rounded=0;orthogonalLoop=1;jettySize=auto;html=1;exitX=1;exitY=0.5;exitDx=0;exitDy=0;entryX=0;entryY=0.5;entryDx=0;entryDy=0;" edge="1" parent="WIyWlLk6GJQsqaUBKTNV-1" source="WIyWlLk6GJQsqaUBKTNV-3" target="05jQyI-5W1TUXFGKNwJl-6">
          <mxGeometry relative="1" as="geometry" />
        </mxCell>
        <mxCell id="05jQyI-5W1TUXFGKNwJl-12" style="edgeStyle=orthogonalEdgeStyle;rounded=0;orthogonalLoop=1;jettySize=auto;html=1;exitX=0.5;exitY=0;exitDx=0;exitDy=0;entryX=0.5;entryY=1;entryDx=0;entryDy=0;" edge="1" parent="WIyWlLk6GJQsqaUBKTNV-1" source="WIyWlLk6GJQsqaUBKTNV-3" target="05jQyI-5W1TUXFGKNwJl-4">
          <mxGeometry relative="1" as="geometry" />
        </mxCell>
        <mxCell id="05jQyI-5W1TUXFGKNwJl-32" style="edgeStyle=orthogonalEdgeStyle;rounded=0;orthogonalLoop=1;jettySize=auto;html=1;exitX=1;exitY=0;exitDx=0;exitDy=0;entryX=0.5;entryY=1;entryDx=0;entryDy=0;" edge="1" parent="WIyWlLk6GJQsqaUBKTNV-1" source="WIyWlLk6GJQsqaUBKTNV-3" target="05jQyI-5W1TUXFGKNwJl-5">
          <mxGeometry relative="1" as="geometry" />
        </mxCell>
        <mxCell id="05jQyI-5W1TUXFGKNwJl-33" style="edgeStyle=orthogonalEdgeStyle;rounded=0;orthogonalLoop=1;jettySize=auto;html=1;exitX=0;exitY=0;exitDx=0;exitDy=0;entryX=0.5;entryY=1;entryDx=0;entryDy=0;" edge="1" parent="WIyWlLk6GJQsqaUBKTNV-1" source="WIyWlLk6GJQsqaUBKTNV-3" target="05jQyI-5W1TUXFGKNwJl-3">
          <mxGeometry relative="1" as="geometry" />
        </mxCell>
        <mxCell id="WIyWlLk6GJQsqaUBKTNV-3" value="Flask App Initialization" style="rounded=1;whiteSpace=wrap;html=1;fontSize=12;glass=0;strokeWidth=1;shadow=0;" vertex="1" parent="WIyWlLk6GJQsqaUBKTNV-1">
          <mxGeometry x="354" y="555" width="120" height="40" as="geometry" />
        </mxCell>
        <mxCell id="05jQyI-5W1TUXFGKNwJl-0" value="Login Endpoint" style="rounded=1;whiteSpace=wrap;html=1;fontSize=12;glass=0;strokeWidth=1;shadow=0;" vertex="1" parent="WIyWlLk6GJQsqaUBKTNV-1">
          <mxGeometry x="210" y="555" width="120" height="40" as="geometry" />
        </mxCell>
        <mxCell id="05jQyI-5W1TUXFGKNwJl-3" value="Logout Endpoint" style="rounded=1;whiteSpace=wrap;html=1;fontSize=12;glass=0;strokeWidth=1;shadow=0;" vertex="1" parent="WIyWlLk6GJQsqaUBKTNV-1">
          <mxGeometry x="230" y="400" width="120" height="40" as="geometry" />
        </mxCell>
        <mxCell id="05jQyI-5W1TUXFGKNwJl-4" value="Signup Endpoint" style="rounded=1;whiteSpace=wrap;html=1;fontSize=12;glass=0;strokeWidth=1;shadow=0;" vertex="1" parent="WIyWlLk6GJQsqaUBKTNV-1">
          <mxGeometry x="354" y="400" width="120" height="40" as="geometry" />
        </mxCell>
        <mxCell id="05jQyI-5W1TUXFGKNwJl-5" value="Profile Endpoint" style="rounded=1;whiteSpace=wrap;html=1;fontSize=12;glass=0;strokeWidth=1;shadow=0;" vertex="1" parent="WIyWlLk6GJQsqaUBKTNV-1">
          <mxGeometry x="480" y="400" width="120" height="40" as="geometry" />
        </mxCell>
        <mxCell id="05jQyI-5W1TUXFGKNwJl-6" value="Data Processing Endpoint" style="rounded=1;whiteSpace=wrap;html=1;fontSize=12;glass=0;strokeWidth=1;shadow=0;" vertex="1" parent="WIyWlLk6GJQsqaUBKTNV-1">
          <mxGeometry x="500" y="555" width="120" height="40" as="geometry" />
        </mxCell>
        <mxCell id="05jQyI-5W1TUXFGKNwJl-13" value="Database Models (User, History)" style="rounded=1;whiteSpace=wrap;html=1;fontSize=12;glass=0;strokeWidth=1;shadow=0;" vertex="1" parent="WIyWlLk6GJQsqaUBKTNV-1">
          <mxGeometry x="210" y="635" width="120" height="40" as="geometry" />
        </mxCell>
        <mxCell id="05jQyI-5W1TUXFGKNwJl-14" value="User Authentication&amp;nbsp;" style="rounded=1;whiteSpace=wrap;html=1;fontSize=12;glass=0;strokeWidth=1;shadow=0;" vertex="1" parent="WIyWlLk6GJQsqaUBKTNV-1">
          <mxGeometry x="270" y="760" width="120" height="40" as="geometry" />
        </mxCell>
        <mxCell id="05jQyI-5W1TUXFGKNwJl-15" value="Best Deep Model (CNN)" style="rounded=1;whiteSpace=wrap;html=1;fontSize=12;glass=0;strokeWidth=1;shadow=0;" vertex="1" parent="WIyWlLk6GJQsqaUBKTNV-1">
          <mxGeometry x="420" y="760" width="120" height="40" as="geometry" />
        </mxCell>
        <mxCell id="05jQyI-5W1TUXFGKNwJl-16" value="Frontend (HTML/CSS/JavaScript)" style="rounded=1;whiteSpace=wrap;html=1;fontSize=12;glass=0;strokeWidth=1;shadow=0;" vertex="1" parent="WIyWlLk6GJQsqaUBKTNV-1">
          <mxGeometry x="480" y="635" width="140" height="40" as="geometry" />
        </mxCell>
        <mxCell id="05jQyI-5W1TUXFGKNwJl-17" value="" style="endArrow=classic;html=1;rounded=0;exitX=0.5;exitY=1;exitDx=0;exitDy=0;entryX=0.5;entryY=0;entryDx=0;entryDy=0;" edge="1" parent="WIyWlLk6GJQsqaUBKTNV-1" source="WIyWlLk6GJQsqaUBKTNV-3" target="05jQyI-5W1TUXFGKNwJl-13">
          <mxGeometry relative="1" as="geometry">
            <mxPoint x="184" y="605" as="sourcePoint" />
            <mxPoint x="284" y="605" as="targetPoint" />
          </mxGeometry>
        </mxCell>
        <mxCell id="05jQyI-5W1TUXFGKNwJl-18" value="Label" style="edgeLabel;resizable=0;html=1;align=center;verticalAlign=middle;" connectable="0" vertex="1" parent="05jQyI-5W1TUXFGKNwJl-17">
          <mxGeometry relative="1" as="geometry" />
        </mxCell>
        <mxCell id="05jQyI-5W1TUXFGKNwJl-25" value="defines" style="edgeLabel;html=1;align=center;verticalAlign=middle;resizable=0;points=[];" connectable="0" vertex="1" parent="05jQyI-5W1TUXFGKNwJl-17">
          <mxGeometry x="0.044" y="2" relative="1" as="geometry">
            <mxPoint as="offset" />
          </mxGeometry>
        </mxCell>
        <mxCell id="05jQyI-5W1TUXFGKNwJl-19" value="" style="endArrow=classic;html=1;rounded=0;entryX=0.5;entryY=0;entryDx=0;entryDy=0;exitX=0.5;exitY=1;exitDx=0;exitDy=0;" edge="1" parent="WIyWlLk6GJQsqaUBKTNV-1" source="WIyWlLk6GJQsqaUBKTNV-3" target="05jQyI-5W1TUXFGKNwJl-14">
          <mxGeometry relative="1" as="geometry">
            <mxPoint x="374" y="745" as="sourcePoint" />
            <mxPoint x="474" y="745" as="targetPoint" />
          </mxGeometry>
        </mxCell>
        <mxCell id="05jQyI-5W1TUXFGKNwJl-20" value="manages" style="edgeLabel;resizable=0;html=1;align=center;verticalAlign=middle;" connectable="0" vertex="1" parent="05jQyI-5W1TUXFGKNwJl-19">
          <mxGeometry relative="1" as="geometry" />
        </mxCell>
        <mxCell id="05jQyI-5W1TUXFGKNwJl-23" value="" style="endArrow=classic;html=1;rounded=0;entryX=0.5;entryY=0;entryDx=0;entryDy=0;" edge="1" parent="WIyWlLk6GJQsqaUBKTNV-1" target="05jQyI-5W1TUXFGKNwJl-16">
          <mxGeometry relative="1" as="geometry">
            <mxPoint x="414" y="595" as="sourcePoint" />
            <mxPoint x="639" y="615" as="targetPoint" />
          </mxGeometry>
        </mxCell>
        <mxCell id="05jQyI-5W1TUXFGKNwJl-24" value="Label" style="edgeLabel;resizable=0;html=1;align=center;verticalAlign=middle;" connectable="0" vertex="1" parent="05jQyI-5W1TUXFGKNwJl-23">
          <mxGeometry relative="1" as="geometry" />
        </mxCell>
        <mxCell id="05jQyI-5W1TUXFGKNwJl-27" value="renders" style="edgeLabel;html=1;align=center;verticalAlign=middle;resizable=0;points=[];" connectable="0" vertex="1" parent="05jQyI-5W1TUXFGKNwJl-23">
          <mxGeometry x="-0.016" y="1" relative="1" as="geometry">
            <mxPoint as="offset" />
          </mxGeometry>
        </mxCell>
        <mxCell id="05jQyI-5W1TUXFGKNwJl-29" value="" style="endArrow=classic;html=1;rounded=0;exitX=0.5;exitY=1;exitDx=0;exitDy=0;entryX=0.5;entryY=0;entryDx=0;entryDy=0;" edge="1" parent="WIyWlLk6GJQsqaUBKTNV-1" source="WIyWlLk6GJQsqaUBKTNV-3" target="05jQyI-5W1TUXFGKNwJl-15">
          <mxGeometry relative="1" as="geometry">
            <mxPoint x="454" y="625" as="sourcePoint" />
            <mxPoint x="554" y="625" as="targetPoint" />
          </mxGeometry>
        </mxCell>
        <mxCell id="05jQyI-5W1TUXFGKNwJl-30" value="Label" style="edgeLabel;resizable=0;html=1;align=center;verticalAlign=middle;" connectable="0" vertex="1" parent="05jQyI-5W1TUXFGKNwJl-29">
          <mxGeometry relative="1" as="geometry" />
        </mxCell>
        <mxCell id="05jQyI-5W1TUXFGKNwJl-31" value="utilizes" style="edgeLabel;html=1;align=center;verticalAlign=middle;resizable=0;points=[];" connectable="0" vertex="1" parent="05jQyI-5W1TUXFGKNwJl-29">
          <mxGeometry x="-0.016" y="1" relative="1" as="geometry">
            <mxPoint as="offset" />
          </mxGeometry>
        </mxCell>
      </root>
    </mxGraphModel>
  </diagram>
</mxfile>
